PathFileType	4	(X/Y/Z)	T1_P1_Vision_Movement_2_0-687.trc
DataRate	CameraRate	NumFrames	NumMarkers	Units	OrigDataRate	OrigDataStartFrame	OrigNumFrames
60	60	4	27	m	60	515	687
Frame#	Time	RHip			RKnee			RAnkle			RBigToe			RSmallToe			RHeel			LHip			LKnee			LAnkle			LBigToe			LSmallToe			LHeel			Neck			Head			Nose			RShoulder			RElbow			RWrist			RThumb			RIndex			RPinky			LShoulder			LElbow			LWrist			LThumb			LIndex			LPinky		
		X1	Y1	Z1	X2	Y2	Z2	X3	Y3	Z3	X4	Y4	Z4	X5	Y5	Z5	X6	Y6	Z6	X7	Y7	Z7	X8	Y8	Z8	X9	Y9	Z9	X10	Y10	Z10	X11	Y11	Z11	X12	Y12	Z12	X13	Y13	Z13	X14	Y14	Z14	X15	Y15	Z15	X16	Y16	Z16	X17	Y17	Z17	X18	Y18	Z18	X19	Y19	Z19	X20	Y20	Z20	X21	Y21	Z21	X22	Y22	Z22	X23	Y23	Z23	X24	Y24	Z24	X25	Y25	Z25	X26	Y26	Z26	X27	Y27	Z27
516	8.6	-121.98026147959253	3948.3169882912516	-684.5663783794199	234.41781509487976	4070.833519806284	-659.3864500494051	595.8246819657785	4261.227583415957	-686.6100917597558	682.1192870392939	4169.411625325958	-642.936749445611	675.5669760764348	4159.122305926316	-701.8658879682653	638.7692525162493	4314.8990926975475	-697.5941008809768	-134.5698657478692	4049.22764230997	-509.6887568448964	210.96510689756315	4188.088992589824	-510.8063312256714	546.5763065942215	4331.417986296343	-518.6505054544725	633.3384534276736	4228.091676124657	-404.34063392355625	603.133027564024	4275.533498732561	-378.8465320218397	605.3780645613883	4375.1425048925375	-541.1230497370016	-708.2884313838272	3810.8088214773084	-606.9239053981258	-946.5017879185032	3672.328745910407	-547.430287620767	-789.4235366106527	3627.2227482072594	-472.83560218758987	-600.585955427846	3771.8243309654226	-729.3256935290923	-369.13464216747167	3720.978034069	-781.5695293238448	-491.5913320485663	3536.7824484940293	-658.033546118999	-601.8320131737494	3514.473425082817	-620.9650626535453	-596.2588172767502	3356.307236602981	-549.6395021904387	-546.5891103338049	3481.867364726075	-622.8388271402617	-645.8294119696976	3930.4123528977684	-487.8512384186229	-416.07557102669	4108.599427506494	-442.51954537457067	-159.045419495352	4095.324535061886	-367.4773684352212	-37.34294540734012	4019.7984248783896	-357.1740268492376	-2.5799054960806984	4119.426599870674	-372.0020842393063	-23.620908467319346	4177.203204266154	-361.4467795680672
517	8.616666666666667	-122.75120469073967	3956.6457926216217	-687.018007882958	234.64557549685088	4072.5576432320363	-660.6942269406888	596.803643102369	4261.76685672328	-686.472615322568	683.1033213202882	4170.108735821471	-642.8975698878107	675.4400248510206	4159.121795403141	-701.1478762189458	639.1256654172082	4315.497487914074	-698.3225110350743	-133.88656323326305	4050.000617085615	-510.0356826971218	210.47591481406334	4195.857204771848	-513.9716634514447	544.6697661838882	4330.722516413206	-520.8297486959874	635.7673054438942	4241.66147701962	-409.66240170917575	603.7006896496513	4279.059816912821	-379.55457832285305	603.5845939577275	4374.72461780906	-543.4443899776562	-708.2551540100868	3810.822166092171	-606.944094607839	-946.4545152756361	3672.280496967429	-547.4632222686985	-787.5984168233668	3627.7951445346193	-472.7939343011624	-600.5595368336548	3771.7306158254064	-729.5280509065599	-368.98745309132664	3721.6191596876224	-782.0770049245659	-488.3341675440997	3538.084963857086	-658.2112021403715	-596.9752518543872	3511.0819698842474	-619.2561050085884	-592.549619105786	3365.844491521328	-551.0478565119784	-546.5040747132232	3487.4414495946785	-624.8323574591059	-645.308044072383	3930.8899858021905	-488.0025004817955	-414.8444195443719	4109.613634918435	-442.9433327789267	-158.58735287981256	4095.3134387055225	-367.41800095244054	-37.80794703144608	4019.808262916684	-357.14224694310644	-2.937612258269941	4118.799942760759	-372.10193836938936	-23.619756454139782	4177.019046263212	-360.90956819609227
518	8.633333333333333	-123.25690069839706	3959.3885262644517	-687.8172512411952	236.4104707319602	4076.554047339054	-663.0988112436542	598.2168840476775	4262.949210815407	-687.6412156356783	684.1953676796473	4173.618738448014	-643.6430214973083	674.8387848024212	4159.00376219308	-701.118742038094	638.7379006208284	4315.481591695637	-698.7663327296688	-133.85134643821135	4050.00390186418	-510.12054610668605	209.92796159691216	4196.55153433155	-513.8784129826124	543.1990602249567	4330.739828103162	-522.0594822783685	637.1719419676016	4247.843464782227	-413.9168034462838	603.9044313074492	4279.97927285204	-379.7862610124736	602.2533930992798	4374.926872447427	-545.2502919164192	-708.2381759283664	3810.876269136536	-606.9969206144448	-946.4224090877418	3672.2261137137957	-547.4568137012433	-786.3573275856717	3628.1164225465527	-472.7148788384401	-600.5185274323978	3771.748711525016	-729.9945425871857	-368.8387248799443	3722.238982576574	-782.4925781724494	-485.029553611213	3539.5216065657105	-658.4618347068817	-592.9348571040491	3506.4451106166916	-617.222588658281	-587.4070428423244	3382.692051931196	-555.0308282679721	-546.8656283627355	3490.515898087848	-625.8643504988996	-645.249620708472	3931.063640143063	-488.0657791755327	-414.3511984068807	4110.002834566505	-443.10580064989125	-157.77611824188546	4095.3223433817047	-367.34768903347776	-38.37013055810135	4021.8532914081215	-357.51214231759013	-3.1121963384217897	4118.26469084722	-372.09031185666777	-23.241836453060547	4176.870769226226	-361.3183697094198
519	8.65	-122.66064772115422	3957.6014473376986	-687.5066781892282	238.7797015499353	4079.6514465873042	-664.5544408852091	599.5928108969612	4264.401432811525	-689.632861373516	685.2057336197792	4178.513216983449	-644.8278803612592	673.8962860371213	4158.642412415478	-701.3242087063041	638.2961639578439	4315.288933042268	-698.9365757948524	-133.97546401800525	4049.49538300313	-510.04370889342	210.0724048831496	4191.831687836174	-511.7933318223892	543.0818049387556	4334.045613346984	-522.4553547022009	636.8685268063012	4243.44804078232	-415.0148008293371	603.9148285988499	4279.6404592834115	-379.7692533486972	602.3376477069842	4378.569156958535	-546.6513875509665	-708.2393239335793	3810.949114597937	-607.0520187654436	-946.4128189009085	3672.179426581013	-547.4405991144982	-786.4427222254038	3627.987298220416	-472.64145374113417	-600.4359838240996	3771.7414808826675	-730.9072529023574	-368.72320442282955	3722.6117817664544	-782.696442987685	-482.92126214061193	3540.3889363567137	-658.5707951286199	-590.498179618773	3502.0053452160673	-615.4796278884497	-582.3224953286799	3397.934955460322	-559.1492836149627	-546.2166089057432	3487.893239827698	-624.7116633988588	-645.1342489163972	3931.2649780555676	-488.14913019658786	-414.3042211613124	4110.011884194006	-443.1056642304107	-157.34109721931276	4095.4384664103927	-367.54543886360256	-38.19451479164976	4026.7828204286147	-358.69507272585764	-1.8871887106175853	4119.0420225256985	-372.5222074402851	-21.920080024264315	4177.19942144511	-362.3864273330604
